# xmcd
#
# Track frame offsets:
#	150
#	18218
#	26260
#	41050
#	52510
#	65568
#	80240
#	94113
#	109110
#	127040
#	140520
#	150670
#
# Disc length: 2134 seconds
#
# Revision: 1
# Processed by: cddbd v1.5.1PL0 Copyright (c) Steve Scherf et al.
# Submitted via: CDex 1.50Beta5
#
DISCID=9608540c
DTITLE=Various Artist - Film Painting Song
DYEAR=1900
DGENRE=Pop
TTITLE0=Gone with the Wind
TTITLE1=Plein Soleil
TTITLE2=Lawrence of Arabia
TTITLE3=Butch Cassidy and the Sundance Kid
TTITLE4=The Doctor Zhivago
TTITLE5=ジャイアンツ
TTITLE6=Shane
TTITLE7=East of Eden
TTITLE8=The Third Man
TTITLE9=Limelight
TTITLE10=Bonnie and Clyde
TTITLE11=The Magnificent Seven
EXTD=
EXTT0=
EXTT1=
EXTT2=
EXTT3=
EXTT4=
EXTT5=
EXTT6=
EXTT7=
EXTT8=
EXTT9=
EXTT10=
EXTT11=
PLAYORDER=
